<svg width="54" height="16" viewBox="0 0 54 16" fill="none" xmlns="http://www.w3.org/2000/svg">
<g clip-path="url(#clip0_15351_169449)">
<path d="M14.7796 16H10.5396L5.27405 0H9.51297L14.7796 16Z" fill="#50596A"/>
<path d="M9.50544 0H5.26545L-0.000112534 16H4.23987L9.50544 0Z" fill="#50596A"/>
</g>
<path d="M15.5807 12.0792H18.4261C18.5538 13.1344 19.0378 13.7397 20.3674 13.7397C21.5471 13.7397 22.0874 13.2674 22.0874 12.4611C22.0874 11.6548 21.4332 11.3176 19.8536 11.0719C16.9221 10.5996 15.7818 9.70292 15.7818 7.41807C15.7818 4.96941 17.8922 3.76636 20.1483 3.76636C22.6054 3.76636 24.4286 4.70668 24.702 7.39573H21.8981C21.729 6.43308 21.2226 5.98206 20.1781 5.98206C19.1952 5.98206 18.6176 6.47137 18.6176 7.19469C18.6176 7.91802 19.1463 8.22543 20.7482 8.47114C23.5107 8.89769 25.0286 9.63697 25.0286 12.1452C25.0286 14.6534 23.3086 16.0001 20.3887 16.0001C17.4028 16.0022 15.6828 14.6109 15.5797 12.0792H15.5807Z" fill="#50596A"/>
<path d="M32.7328 13.5965C33.2197 13.5965 33.6439 13.5651 34.0052 13.5022V15.8115C33.2197 15.9372 32.4343 16 31.6488 16C30.722 16 29.9836 15.89 29.4338 15.6701C28.8997 15.4502 28.4991 15.0575 28.2321 14.4919C27.9807 13.9264 27.855 13.1331 27.855 12.112V5.89112H25.8286V3.48761H27.855V0.424316H30.8712V3.48761H33.8874V5.89112H30.8712V11.735C30.8712 12.489 31.0047 12.9917 31.2718 13.243C31.5546 13.4787 32.0415 13.5965 32.7328 13.5965Z" fill="#50596A"/>
<path d="M34.8052 10.039V9.86028C34.8052 6.16176 37.2624 3.76416 40.4769 3.76416C43.3255 3.76416 45.854 5.53205 45.854 9.72519V10.6219H37.9145C37.9985 12.5812 38.9909 13.6907 40.6567 13.6907C42.0693 13.6907 42.765 13.0418 42.9543 12.0547H45.8444C45.4859 14.5874 43.5883 16 40.5705 16C37.2284 16 34.8052 13.7811 34.8052 10.039ZM42.8798 8.62531C42.7745 6.85424 41.931 6.00433 40.4769 6.00433C39.1058 6.00433 38.1793 6.96699 37.9464 8.62531H42.8809H42.8798Z" fill="#50596A"/>
<path d="M46.6539 4.2705H49.711V6.51174C50.4088 4.94383 51.4832 4.11413 53.2766 4.0918V7.11911C51.0205 7.09465 49.711 7.88073 49.711 10.122V16H46.6539V4.2705Z" fill="#50596A"/>
<defs>
<clipPath id="clip0_15351_169449">
<rect width="14.7797" height="16" fill="white"/>
</clipPath>
</defs>
</svg>
